/* XPM */
static char * tile128_xpm[] = {
"128 128 55 1",
" 	c None",
".	c #F3CEF3CEF3CE",
"+	c #000000000000",
"@	c #514461856185",
"#	c #A289A289B2CA",
"$	c #A289A289A289",
"%	c #A2899248B2CA",
"&	c #9248A289A289",
"*	c #A2899248A289",
"=	c #92489248A289",
"-	c #924892489248",
";	c #92488207A289",
">	c #820792489248",
",	c #924882079248",
"'	c #820782079248",
")	c #820782078207",
"!	c #820771C69248",
"~	c #618551446185",
"{	c #9248A289B2CA",
"]	c #92489248B2CA",
"^	c #82079248A289",
"/	c #82078207A289",
"(	c #71C682079248",
"_	c #71C682078207",
":	c #514451446185",
"<	c #514451445144",
"[	c #820771C68207",
"}	c #410351445144",
"|	c #514441035144",
"1	c #71C671C69248",
"2	c #71C671C68207",
"3	c #71C671C671C6",
"4	c #410341035144",
"5	c #71C661858207",
"6	c #618571C68207",
"7	c #410351444103",
"8	c #410341034103",
"9	c #618571C671C6",
"0	c #410330C24103",
"a	c #30C241034103",
"b	c #71C6618571C6",
"c	c #6185618571C6",
"d	c #618561858207",
"e	c #30C230C230C2",
"f	c #618561856185",
"g	c #30C230C24103",
"h	c #5144618571C6",
"i	c #30C2410330C2",
"j	c #6185514471C6",
"k	c #208130C230C2",
"l	c #30C2208130C2",
"m	c #5144514471C6",
"n	c #2081208130C2",
"o	c #208120812081",
"p	c #410330C25144",
"..............................................................................................................................++",
"..............................................................................................................................++",
"............................................................................................................................@@++",
"............................................................................................................................@@++",
"....##$$##$$%%$$%%$$%%$$%%&&**==%%&&**==**==**======**====--;;--;;--;;--;;>>;;>>;;>>,,'',,>>,,'',,'',,''''))''''''))!!))!!))~~++",
"....##$$##$$%%$$%%$$%%$$%%&&**==%%&&**==**==**======**====--;;--;;--;;--;;>>;;>>;;>>,,'',,>>,,'',,'',,''''))''''''))!!))!!))~~++",
"....####&&##{{##&&##&&##&&%%&&%%&&]]&&==&&==&&==&&==&&==^^======>>==>>==>>;;>>;;>>//>>;;>>//>>''>>''>>''''''''''((''((''__''@@++",
"....####&&##{{##&&##&&##&&%%&&%%&&]]&&==&&==&&==&&==&&==^^======>>==>>==>>;;>>;;>>//>>;;>>//>>''>>''>>''''''''''((''((''__''@@++",
"....##$$%%$$##$$**$$%%&&**&&**&&**==**&&**==**--**====--==--==--;;--;;>>,,--;;>>,,>>,,>>,,'',,'',,''''))''))''))!!))!!))!!))::++",
"....##$$%%$$##$$**$$%%&&**&&**&&**==**&&**==**--**====--==--==--;;--;;>>,,--;;>>,,>>,,>>,,'',,'',,''''))''))''))!!))!!))!!))::++",
"....{{######&&%%&&%%&&%%&&%%&&]]&&**&&]]&&==================>>==^^==>>;;>>;;>>;;>>;;>>//>>''''''>>''''''''''((''''''__!!__!!<<++",
"....{{######&&%%&&%%&&%%&&%%&&]]&&**&&]]&&==================>>==^^==>>;;>>;;>>;;>>;;>>//>>''''''>>''''''''''((''''''__!!__!!<<++",
"....%%$$%%$$%%$$%%&&**==**&&**==**==**====--======--;;--;;--;;--;;>>,,>>;;>>,,'',,>>,,'''''',,''''))''''''))!!))!!__!!))!!__::++",
"....%%$$%%$$%%$$%%&&**==**&&**==**==**====--======--;;--;;--;;--;;>>,,>>;;>>,,'',,>>,,'''''',,''''))''''''))!!))!!__!!))!!__::++",
"....&&##&&##&&##&&%%&&%%&&]]&&==&&==&&======&&==^^==^^==>>==>>==>>;;>>;;>>//>>,,>>//>>''>>''>>''''''''''__''((''__!!__''__!!<<++",
"....&&##&&##&&##&&%%&&%%&&]]&&==&&==&&======&&==^^==^^==>>==>>==>>;;>>;;>>//>>,,>>//>>''>>''>>''''''''''__''((''__!!__''__!!<<++",
"....%%$$**$$%%&&**&&**&&**==**==**==**--**--==--;;--==--;;--;;>>,,>>;;>>,,>>,,>>,,'',,'',,''''))''))''))!!))!!))!!))!!__[[__::++",
"....%%$$**$$%%&&**&&**&&**==**==**==**--**--==--;;--==--;;--;;>>,,>>;;>>,,>>,,>>,,'',,'',,''''))''))''))!!))!!))!!))!!__[[__::++",
"....&&%%&&%%&&%%&&%%&&]]&&**&&==&&==================>>==>>==>>;;>>;;>>;;>>;;>>//>>''''''>>''''''''''((''''''__!!__!!__!!__!!}}++",
"....&&%%&&%%&&%%&&%%&&]]&&**&&==&&==================>>==>>==>>;;>>;;>>;;>>;;>>//>>''''''>>''''''''''((''''''__!!__!!__!!__!!}}++",
"....**$$%%&&**==**&&**==**==**====--======--;;--;;--;;--;;>>,,>>;;>>,,'',,'',,'''''',,''''))!!))''))!!))!!__!!__!!__[[__!!__||++",
"....**$$%%&&**==**&&**==**==**====--======--;;--;;--;;--;;>>,,>>;;>>,,'',,'',,'''''',,''''))!!))''))!!))!!__!!__!!__[[__!!__||++",
"....&&##&&]]&&%%&&]]&&==&&==&&==========^^==^^==>>==>>==>>;;>>;;>>//>>,,>>//>>''>>''>>''''''''''__''__''__!!__!!__!!__!!__11}}++",
"....&&##&&]]&&%%&&]]&&==&&==&&==========^^==^^==>>==>>==>>;;>>;;>>//>>,,>>//>>''>>''>>''''''''''__''__''__!!__!!__!!__!!__11}}++",
"....%%&&**&&**&&**==**==**====--**--==--;;--==--;;--;;>>,,>>;;>>,,>>,,>>,,'',,'',,''''))''))''))!!))!!))!!))!!__[[__[[__[[22||++",
"....%%&&**&&**&&**==**==**====--**--==--;;--==--;;--;;>>,,>>;;>>,,>>,,>>,,'',,'',,''''))''))''))!!))!!))!!))!!__[[__[[__[[22||++",
"....&&%%&&%%&&]]&&======&&==========^^======>>;;>>==>>;;>>;;>>;;>>;;>>//>>''''''''''''''''''((''((''__!!__!!__!!__!!__11__22}}++",
"....&&%%&&%%&&]]&&======&&==========^^======>>;;>>==>>;;>>;;>>;;>>;;>>//>>''''''''''''''''''((''((''__!!__!!__!!__!!__11__22}}++",
"....**==**&&**==**==**====--======--;;--;;--;;--;;>>,,'';;>>,,'',,'',,'''''',,''''))!!))!!))!!))!!__!!__!!__[[__!!__[[22[[22||++",
"....**==**&&**==**==**====--======--;;--;;--;;--;;>>,,'';;>>,,'',,'',,'''''',,''''))!!))!!))!!))!!__!!__!!__[[__!!__[[22[[22||++",
"....&&**&&]]&&==&&==&&==========>>==^^==>>==>>==>>;;>>;;>>//>>''>>//>>''>>''>>''((''''''__''__''__!!__!!__!!__!!__11__22__22}}++",
"....&&**&&]]&&==&&==&&==========>>==^^==>>==>>==>>;;>>;;>>//>>''>>//>>''>>''>>''((''''''__''__''__!!__!!__!!__!!__11__22__22}}++",
"....**&&**==**==**====--==--==--;;--==--;;--;;>>,,>>,,>>,,'',,>>,,'',,)),,''''))''))''))!!))!!__[[))!!__[[__[[__[[22[[22[[22||++",
"....**&&**==**==**====--==--==--;;--==--;;--;;>>,,>>,,>>,,'',,>>,,'',,)),,''''))''))''))!!))!!__[[))!!__[[__[[__[[22[[22[[22||++",
"....&&]]&&======&&==========^^======>>;;>>;;>>;;>>;;>>;;>>,,>>//>>''''''''''''''''''__''((''__!!__!!__!!__!!__11__222211__22}}++",
"....&&]]&&======&&==========^^======>>;;>>;;>>;;>>;;>>;;>>,,>>//>>''''''''''''''''''__''((''__!!__!!__!!__!!__11__222211__22}}++",
"....**==**==**====--==--==--;;--;;--;;--;;>>,,'';;>>,,'',,'',,''''''''''''))!!))!!))!!))!!__!!__!!__[[22[[__[[222222[[222222||++",
"....**==**==**====--==--==--;;--;;--;;--;;>>,,'';;>>,,'',,'',,''''''''''''))!!))!!))!!))!!__!!__!!__[[22[[__[[222222[[222222||++",
"....&&==&&==&&==========>>==^^==>>==>>==>>;;>>;;>>//>>''>>''>>''''''>>''((''((''__''__''__!!__!!__!!__!!__11__22__22__222222}}++",
"....&&==&&==&&==========>>==^^==>>==>>==>>;;>>;;>>//>>''>>''>>''''''>>''((''((''__''__''__!!__!!__!!__!!__11__22__22__222222}}++",
"....**==**====--==--==--;;--;;--;;--;;>>,,>>,,>>,,'',,'',,'',,)),,''''))!!))''))!!))!!__[[__!!__[[__[[__[[22[[22[[2222332233||++",
"....**==**====--==--==--;;--;;--;;--;;>>,,>>,,>>,,'',,'',,'',,)),,''''))!!))''))!!))!!__[[__!!__[[__[[__[[22[[22[[2222332233||++",
"....====&&==========>>======>>;;>>;;>>;;>>;;>>//>>,,>>//>>''''''''''''''''''__''((''__!!__!!__!!__!!__11__222222__222222222244++",
"....====&&==========>>======>>;;>>;;>>;;>>;;>>//>>,,>>//>>''''''''''''''''''__''((''__!!__!!__!!__!!__11__222222__222222222244++",
"....**====--==--==--;;--;;>>;;--;;>>,,'';;>>,,'',,'',,''''''''''''))!!))!!))!!))!!__!!__!!__[[22[[22[[222222[[22223355222233||++",
"....**====--==--==--;;--;;>>;;--;;>>,,'';;>>,,'',,'',,''''''''''''))!!))!!))!!))!!__!!__!!__[[22[[22[[222222[[22223355222233||++",
"....&&==========>>==^^==>>;;>>==>>//>>;;>>//>>''>>''>>''''''''''((''((''__''__''__!!__!!__11__!!__11__22__22__2222222222662277++",
"....&&==========>>==^^==>>;;>>==>>//>>;;>>//>>''>>''>>''''''''''((''((''__''__''__!!__!!__11__!!__11__22__22__2222222222662277++",
"....==--==--==--;;--;;--,,--;;>>,,>>,,>>,,'',,'',,'''')),,''''))!!))''))!!))!!__[[__!!__[[__[[__[[22[[22[[22223322332233553344++",
"....==--==--==--;;--;;--,,--;;>>,,>>,,>>,,'',,'',,'''')),,''''))!!))''))!!))!!__[[__!!__[[__[[__[[22[[22[[22223322332233553344++",
"....========>>==^^==>>;;>>;;>>;;>>;;>>//>>''''//>>''''''''''((''''''__!!((''__!!__!!__!!__!!__11__2222222222222222226622662288++",
"....========>>==^^==>>;;>>;;>>;;>>;;>>//>>''''//>>''''''''''((''''''__!!((''__!!__!!__!!__!!__11__2222222222222222226622662288++",
"....;;--==--;;--;;>>;;>>;;>>,,'',,>>,,'',,'',,''''))''''''))!!))!!))!!))!!__!!__!!__[[22[[22[[222222[[222233552255335533559900++",
"....;;--==--;;--;;>>;;>>;;>>,,'',,>>,,'',,'',,''''))''''''))!!))!!))!!))!!__!!__!!__[[22[[22[[222222[[222233552255335533559900++",
"....====>>==>>==>>;;>>;;>>//>>;;>>//>>''>>''>>''''''''''((''((''__''__''__!!__!!__11__22__11__22__22__226622222299226622995588++",
"....====>>==>>==>>;;>>;;>>//>>;;>>//>>''>>''>>''''''''''((''((''__''__''__!!__!!__11__22__11__22__22__226622222299226622995588++",
"....==--;;--;;>>,,--;;>>,,>>,,>>,,'',,'',,''''))''))''))!!))''))!!))!!__[[__!!__[[22[[__[[22[[22[[2222332233223355335599553388++",
"....==--;;--;;>>,,--;;>>,,>>,,>>,,'',,'',,''''))''))''))!!))''))!!))!!__[[__!!__[[22[[__[[22[[22[[2222332233223355335599553388++",
"....>>==^^==>>;;>>;;>>;;>>;;>>//>>''''''>>''''''''''((''''''__!!__!!__!!__!!__!!__!!__11__2222222222222222226622662299559955aa++",
"....>>==^^==>>;;>>;;>>;;>>;;>>//>>''''''>>''''''''''((''''''__!!__!!__!!__!!__!!__!!__11__2222222222222222226622662299559955aa++",
"....;;--;;>>,,>>;;>>,,'',,>>,,'',,'',,''''))''''''))!!))!!))!!))!!__!!__!!__[[22[[22[[2222222222223355225533553355995599559900++",
"....;;--;;>>,,>>;;>>,,'',,>>,,'',,'',,''''))''''''))!!))!!))!!))!!__!!__!!__[[22[[22[[2222222222223355225533553355995599559900++",
"....>>==>>;;>>;;>>//>>;;>>//>>''>>''>>''''''''''((''((''__''__''__!!__!!__11__22__22__222222__226622662299229922995599229955aa++",
"....>>==>>;;>>;;>>//>>;;>>//>>''>>''>>''''''''''((''((''__''__''__!!__!!__11__22__22__222222__226622662299229922995599229955aa++",
"....;;>>,,>>;;>>,,>>,,>>,,'',,'',,''''))''))''))!!))!!))!!))!!__[[__!!__[[22[[22[[22[[22[[222233553322335533559955335599bb9900++",
"....;;>>,,>>;;>>,,>>,,>>,,'',,'',,''''))''))''))!!))!!))!!))!!__[[__!!__[[22[[22[[22[[22[[222233553322335533559955335599bb9900++",
"....>>;;>>;;>>;;>>;;>>//>>''''''>>''''''''''((''''''__!!__!!__!!__!!__11__!!__11__222222222222222222662266229955995599559955aa++",
"....>>;;>>;;>>;;>>;;>>//>>''''''>>''''''''''((''''''__!!__!!__!!__!!__11__!!__11__222222222222222222662266229955995599559955aa++",
"....,,>>;;>>,,'',,>>,,'''''',,''''))''''''))!!))!!__!!))!!__[[__!!__[[22[[22[[22222222222233553355335533559955995599bbcc55cc00++",
"....,,>>;;>>,,'',,>>,,'''''',,''''))''''''))!!))!!__!!))!!__[[__!!__[[22[[22[[22222222222233553355335533559955995599bbcc55cc00++",
"....>>;;>>//>>,,>>//>>''>>''>>''''''''''__''((''__!!__''__!!__!!__11__22__22__222222222266226622992299229955992299dd995599ddaa++",
"....>>;;>>//>>,,>>//>>''>>''>>''''''''''__''((''__!!__''__!!__!!__11__22__22__222222222266226622992299229955992299dd995599ddaa++",
"....;;>>,,>>,,>>,,'',,'',,''''))''))''))!!))!!))!!))!!__[[__[[__[[22[[22[[222222[[222233553322335533559955335599bb99bb99bbcc00++",
"....;;>>,,>>,,>>,,'',,'',,''''))''))''))!!))!!))!!))!!__[[__[[__[[22[[22[[222222[[222233553322335533559955335599bb99bb99bbcc00++",
"....>>;;>>;;>>//>>''''''>>''''''''''((''((''__!!__!!__!!__!!__11__222211__22222222226622222299556622995599559955995599dd99ccaa++",
"....>>;;>>;;>>//>>''''''>>''''''''''((''((''__!!__!!__!!__!!__11__222211__22222222226622222299556622995599559955995599dd99ccaa++",
"....,,'',,'',,'''''',,''''))!!))''))!!))!!__!!__!!__[[__!!__[[22[[22[[22222222222233553355335533559955995599bbcc55ccbbcccccc00++",
"....,,'',,'',,'''''',,''''))!!))''))!!))!!__!!__!!__[[__!!__[[22[[22[[22222222222233553355335533559955995599bbcc55ccbbcccccc00++",
"....>>,,>>//>>''>>''>>''''''''''__''__''__!!__!!__!!__!!__11__22__22__222222222266226622992299229955992299dd99dd99dd99cc99ccaa++",
"....>>,,>>//>>''>>''>>''''''''''__''__''__!!__!!__!!__!!__11__22__22__222222222266226622992299229955992299dd99dd99dd99cc99ccaa++",
"....,,>>,,'',,'',,''''))''))''))!!))!!__!!))!!__[[__[[__[[22[[22[[22223322332233553322335533559955335599bbccbb99bbccbbccbbcc00++",
"....,,>>,,'',,'',,''''))''))''))!!))!!__!!))!!__[[__[[__[[22[[22[[22223322332233553322335533559955335599bbccbb99bbccbbccbbcc00++",
"....>>//>>''''''''''''''''''__''((''__!!__!!__!!__!!__11__222211__22222222226622222299559955995599559955995599dd99ccccccccccee++",
"....>>//>>''''''''''''''''''__''((''__!!__!!__!!__!!__11__222211__22222222226622222299559955995599559955995599dd99ccccccccccee++",
"....,,'''''',,''''))!!))!!))!!))!!__!!__!!__[[__!!__[[22[[22[[22222222222233553355335533559955995599bbccbbccbbccccccccccccffgg++",
"....,,'''''',,''''))!!))!!))!!))!!__!!__!!__[[__!!__[[22[[22[[22222222222233553355335533559955995599bbccbbccbbccccccccccccffgg++",
"....>>''''''>>''((''''''__''__''__!!__!!__!!__!!__11__22__22__222222222266226622992299229955995599dd99dd99dd99cccccc99cchhccii++",
"....>>''''''>>''((''''''__''__''__!!__!!__!!__!!__11__22__22__222222222266226622992299229955995599dd99dd99dd99cccccc99cchhccii++",
"....,,)),,''''))!!))''))!!))!!__[[__!!__[[__[[__[[22[[22[[22223322332233553355335533559955335599bbccbbccbbccbbccbbccccffjjffgg++",
"....,,)),,''''))!!))''))!!))!!__[[__!!__[[__[[__[[22[[22[[22223322332233553355335533559955335599bbccbbccbbccbbccbbccccffjjffgg++",
"....''''''''''''''''__''((''__!!__!!__!!__!!__11__222211__222222222266222222995599559955995599dd995599dd99cccccccccccccccccckk++",
"....''''''''''''''''__''((''__!!__!!__!!__!!__11__222211__222222222266222222995599559955995599dd995599dd99cccccccccccccccccckk++",
"....''''''))!!))!!))!!))!!__!!__!!__[[22[[__[[222222[[22223322222233553355995533559955995599bbccbbccbbccccccccccccffjjffjjffll++",
"....''''''))!!))!!))!!))!!__!!__!!__[[22[[__[[222222[[22223322222233553355995533559955995599bbccbbccbbccccccccccccffjjffjjffll++",
"....''''((''((''__''__''__!!__!!__!!__!!__11__22__22__222222222266226622995599229955995599dd99dd99dd99cccccccccchhcchhcc@@cckk++",
"....''''((''((''__''__''__!!__!!__!!__!!__11__22__22__222222222266226622995599229955995599dd99dd99dd99cccccccccchhcchhcc@@cckk++",
"....''))!!))''))!!))!!__[[__!!__[[__[[__[[22[[22[[222233223322335533553355335599bb99bb99bbccbbccbbccccccbbccccffjjffccffjjffee++",
"....''))!!))''))!!))!!__[[__!!__[[__[[__[[22[[22[[222233223322335533553355335599bb99bb99bbccbbccbbccccccbbccccffjjffccffjjffee++",
"....''''''''__''((''__!!__!!__!!__!!__11__222222__222222222266226622995599559955995599dd99ddccdd99cccccccccchhcccccchhjjhhcckk++",
"....''''''''__''((''__!!__!!__!!__!!__11__222222__222222222266226622995599559955995599dd99ddccdd99cccccccccchhcccccchhjjhhcckk++",
"....!!))!!))!!))!!__!!__!!__[[22[[22[[222222[[22223355222233553355995599559955995599bbccbbccbbccccccccccccffjjffjjffjjffjj@@ll++",
"....!!))!!))!!))!!__!!__!!__[[22[[22[[222222[[22223355222233553355995599559955995599bbccbbccbbccccccccccccffjjffjjffjjffjj@@ll++",
"....((''__''__''__!!__!!__11__!!__11__22__22__222222222266226622995599229955995599dd99cc99cc99cccccccccchhcchhcc@@cc@@cc@@jjkk++",
"....((''__''__''__!!__!!__11__!!__11__22__22__222222222266226622995599229955995599dd99cc99cc99cccccccccchhcchhcc@@cc@@cc@@jjkk++",
"....''))!!))!!__[[__!!__[[22[[__[[22[[22[[222233223322335533559955335599bb99bb99bbccbbccbbccccccccccccffjjffccffjjffjj@@jjffll++",
"....''))!!))!!__[[__!!__[[22[[__[[22[[22[[222233223322335533559955335599bb99bb99bbccbbccbbccccccccccccffjjffccffjjffjj@@jjffll++",
"....__!!__''__!!__!!__!!__!!__11__22222222222222222266226622995599559955995599dd99ddccdd99cccccccccchhcccccchhjjhhcc@@jj@@jjkk++",
"....__!!__''__!!__!!__!!__!!__11__22222222222222222266226622995599559955995599dd99ddccdd99cccccccccchhcccccchhjjhhcc@@jj@@jjkk++",
"....!!))!!__!!__!!__[[22[[22[[222222[[222233552255335533559955995599bb995599bbccbbccbbccccccccccccffjjffjjffjjffjj@@jj@@jj@@ll++",
"....!!))!!__!!__!!__[[22[[22[[222222[[222233552255335533559955995599bb995599bbccbbccbbccccccccccccffjjffjjffjjffjj@@jj@@jj@@ll++",
"....__''__!!__!!__11__22__11__222222__226622222299226622995599229955995599dd99cc99cc99cccccccccchhcchhcc@@cc@@cc@@jj@@jj@@mmkk++",
"....__''__!!__!!__11__22__11__222222__226622222299226622995599229955995599dd99cc99cc99cccccccccchhcchhcc@@cc@@cc@@jj@@jj@@mmkk++",
"....!!__[[__!!__[[22[[22[[22[[22[[222233553322335533559955335599bb99bb99bbccbbccbbccccccccccccffjjffjjffjjffjj@@jjffjj@@~~::ll++",
"....!!__[[__!!__[[22[[22[[22[[22[[222233553322335533559955335599bb99bb99bbccbbccbbccccccccccccffjjffjjffjjffjj@@jjffjj@@~~::ll++",
"....__!!__!!__!!__!!__11__22222222222222222266226622995599559955995599dd99ccccdd99cccccccccchhcccccc@@jjhhcc@@jj@@jj@@mm@@jjkk++",
"....__!!__!!__!!__!!__11__22222222222222222266226622995599559955995599dd99ccccdd99cccccccccchhcccccc@@jjhhcc@@jj@@jj@@mm@@jjkk++",
"....!!__!!__[[22[[22[[22222222222233553355335533559955995599bbcc5599bbccccccbbccccccccccccffjjffjj@@jjffjj@@jj@@jj@@~~::~~::ll++",
"....!!__!!__[[22[[22[[22222222222233553355335533559955995599bbcc5599bbccccccbbccccccccccccffjjffjj@@jjffjj@@jj@@jj@@~~::~~::ll++",
"....__!!__11__22__22__22222222226622662299229922995599229955995599dd99cc99cc99cccccccccchhcchhcc@@jj@@cc@@jj@@jj@@mm@@mm@@mmkk++",
"....__!!__11__22__22__22222222226622662299229922995599229955995599dd99cc99cc99cccccccccchhcchhcc@@jj@@cc@@jj@@jj@@mm@@mm@@mmkk++",
"....!!__[[22[[22[[22[[22[[222233553322335533559955335599bb99bb99bbccbbccbbccccffccccccffjjffjjffjjffjj@@jj@@jj@@~~::~~::~~::nn++",
"....!!__[[22[[22[[22[[22[[222233553322335533559955335599bb99bb99bbccbbccbbccccffccccccffjjffjjffjjffjj@@jj@@jj@@~~::~~::~~::nn++",
"....__11__!!__11__22222222222222222299226622995599559955995599dd99cccccc99cccccccccchhcchhcc@@jjhhjj@@jj@@jj@@mm@@mm::mm@@::oo++",
"....__11__!!__11__22222222222222222299226622995599559955995599dd99cccccc99cccccccccchhcchhcc@@jjhhjj@@jj@@jj@@mm@@mm::mm@@::oo++",
"....~~<<::<<::<<::<<||<<||}}||}}||77||44||88||884488pp884488008800aa00aa00ii00eeggeeggeeggeelleelleelleellkkllnnlloolloonnoonn++",
"....~~<<::<<::<<::<<||<<||}}||}}||77||44||88||884488pp884488008800aa00aa00ii00eeggeeggeeggeelleelleelleellkkllnnlloolloonnoonn++",
"..++++++++++++++++++++++++++++++++++++++++++++++++++++++++++++++++++++++++++++++++++++++++++++++++++++++++++++++++++++++++++++++",
"..++++++++++++++++++++++++++++++++++++++++++++++++++++++++++++++++++++++++++++++++++++++++++++++++++++++++++++++++++++++++++++++"};
